<?xml version="1.0" encoding="UTF-8"?><svg id="Ebene_2" xmlns="http://www.w3.org/2000/svg" viewBox="0 0 319.165 28.666"><defs><style>.cls-1{fill:#1c1d38;}</style></defs><g id="Ebene_1-2"><g><path class="cls-1" d="M22.888,28.291L13.095,5.028,3.152,28.291H0L11.632,1.05c.3-.637,.862-1.012,1.463-1.012,.638,0,1.201,.375,1.463,1.012l11.519,27.241h-3.189Z"/><path class="cls-1" d="M32.993,16.623V.525h2.814V16.623c0,4.915,4.052,8.93,9.005,8.93s8.968-4.015,8.968-8.93V.525h2.814V16.623c0,6.528-5.29,11.744-11.782,11.744-6.528,0-11.819-5.216-11.819-11.744"/><polygon class="cls-1" points="89.211 3.339 78.893 3.339 78.893 28.291 76.079 28.291 76.079 3.339 65.76 3.339 65.76 .525 89.211 .525 89.211 3.339"/><path class="cls-1" d="M157.676,1.576V28.291h-2.814V5.366l-10.394,16.208-10.393-16.208V28.291h-2.814V1.576c0-.863,.713-1.576,1.576-1.576,.525,0,.975,.263,1.276,.676l10.355,16.021L154.824,.676c.301-.413,.751-.676,1.276-.676,.901,0,1.576,.713,1.576,1.576"/><path class="cls-1" d="M188.98,28.291l-9.793-23.263-9.943,23.263h-3.152L177.725,1.05c.3-.637,.862-1.012,1.463-1.012,.638,0,1.201,.375,1.463,1.012l11.519,27.241h-3.189Z"/><polygon class="cls-1" points="219.159 3.339 208.841 3.339 208.841 28.291 206.027 28.291 206.027 3.339 195.707 3.339 195.707 .525 219.159 .525 219.159 3.339"/><path class="cls-1" d="M274.277,17.936h-8.705v10.356h-2.813V2.139c0-.9,.712-1.613,1.65-1.613h11.331c4.878,0,8.818,4.09,8.818,8.967,0,4.278-3.114,7.617-7.204,8.293l7.317,10.506h-3.19l-7.204-10.356Zm-8.705-2.702h10.168c3.415,0,6.004-2.551,6.004-5.741,0-3.339-2.664-6.153-6.004-6.153h-10.168V15.234Z"/><path class="cls-1" d="M294.738,25.965l1.201-2.59c3.264,1.689,6.716,2.477,10.543,2.477,6.078,0,9.831-2.213,9.831-5.29,0-4.165-4.578-4.803-9.493-5.328-5.478-.563-11.707-1.013-11.707-7.167,0-4.915,5.028-7.992,12.157-7.992,3.64,0,7.43,.788,10.581,2.139l-1.088,2.551c-2.889-1.238-6.228-1.951-9.493-1.951-5.628,0-9.267,1.839-9.267,5.253,0,3.827,4.502,4.052,8.967,4.502,5.779,.563,12.195,1.501,12.195,7.993,0,4.802-5.216,8.104-12.683,8.104-4.24,0-8.067-.863-11.744-2.701"/><path class="cls-1" d="M94.104,14.221c0-7.992,6.378-14.221,14.183-14.221,7.766,0,14.183,6.154,14.183,14.221s-6.304,14.445-14.183,14.445c-7.805,0-14.183-6.453-14.183-14.445m25.589,0c0-6.454-5.103-11.519-11.406-11.519s-11.407,5.065-11.407,11.519c.038,6.453,5.103,11.781,11.407,11.781,6.341,0,11.368-5.291,11.406-11.781"/><path class="cls-1" d="M224.854,14.221c0-7.992,6.378-14.221,14.183-14.221,7.766,0,14.183,6.154,14.183,14.221s-6.304,14.445-14.183,14.445c-7.805,0-14.183-6.453-14.183-14.445m25.589,0c0-6.454-5.103-11.519-11.406-11.519s-11.407,5.065-11.407,11.519c.038,6.453,5.103,11.781,11.407,11.781,6.341,0,11.368-5.291,11.406-11.781"/></g></g></svg>