<svg xmlns="http://www.w3.org/2000/svg" width="381.795" height="729.806" viewBox="0 0 381.795 729.806">
  <path id="Subtraction_3" data-name="Subtraction 3" d="M248.254,2807h0l-127.781,0a72.371,72.371,0,0,1,28.894-13.834l39.769-157.6a132.556,132.556,0,0,1-10.344-27.8,126.09,126.09,0,0,1-3.7-30.261V2554.32l-44.477,94c1.348,22-1.833,40.969-9.455,56.379a68.069,68.069,0,0,1-21.613,25.834,63.645,63.645,0,0,1-36.772,11.5,69.017,69.017,0,0,1-14.944-1.656,73.662,73.662,0,0,1-14.794-5,53.725,53.725,0,0,1-14.582-9.76,52.312,52.312,0,0,1-9.689-12.546c-4.466-8.011-7.258-17.625-8.3-28.578a115.586,115.586,0,0,1,.5-25.1A102.292,102.292,0,0,1,3.07,2647.51a1.184,1.184,0,0,1,.14-.3,1.256,1.256,0,0,0,.133-.277.822.822,0,0,0,.022-.26v-.008a.778.778,0,0,1,.03-.273,511.174,511.174,0,0,1,21.545-51.5c7.108-14.763,15.131-29.812,23.845-44.727a668.663,668.663,0,0,1,38.02-58.054A121.029,121.029,0,0,1,70.43,2454.96l-13.621-53.938a12.76,12.76,0,0,1,12.374-15.891h80.838a188.811,188.811,0,0,1-18.709-26.113,186.159,186.159,0,0,1-14.058-29.172,184.236,184.236,0,0,1-11.921-65.416c0-102.691,83.546-186.236,186.237-186.236a185.026,185.026,0,0,1,89.222,22.8v29.856a159.7,159.7,0,0,0-89.222-27.113c-88.606,0-160.691,72.086-160.691,160.691S202.965,2425.1,291.57,2425.1a159.722,159.722,0,0,0,89.222-27.108v29.736a185.074,185.074,0,0,1-180.156-.947V2577.5a103.181,103.181,0,0,0,12.6,49.533,11.978,11.978,0,0,1,.669,1.177,102.6,102.6,0,0,0,45.7,42.537,104.44,104.44,0,0,0,20.689,7.2l11.264,2.632,11.264-2.632a104.432,104.432,0,0,0,20.7-7.2,102.663,102.663,0,0,0,45.714-42.545,12.158,12.158,0,0,1,.665-1.163,103.257,103.257,0,0,0,9.325-23.611c.6-2.328,1.127-4.713,1.564-7.087v91.163l-6.057-24a129.053,129.053,0,0,1-18.47,16.863,127.312,127.312,0,0,1-21.709,13.081V2807H309.008V2702.732a1.451,1.451,0,0,0-.157.049l-.014,0a1.376,1.376,0,0,1-.177.057l-14.295,3.344a12.8,12.8,0,0,1-2.167.243h-.023a1.039,1.039,0,0,0-.229.04,1.028,1.028,0,0,1-.251.041.37.37,0,0,1-.051,0h-.01a.348.348,0,0,0-.063-.007.336.336,0,0,0-.062.007H291.5a.365.365,0,0,1-.05,0,1.012,1.012,0,0,1-.253-.041h-.006a1.092,1.092,0,0,0-.225-.039l-.087-.006a12,12,0,0,1-2.072-.238l-14.322-3.344a1.331,1.331,0,0,1-.19-.06l-.008,0a1.29,1.29,0,0,0-.176-.056V2807H248.559V2693.445a127.317,127.317,0,0,1-21.7-13.073,129.078,129.078,0,0,1-18.461-16.858l-32.236,127.748H203.78a69.757,69.757,0,0,1,23.941,4.23A74.045,74.045,0,0,1,248.252,2807ZM105.114,2658.97l-78.787,3.9c-.851,6.869-1.42,17.053.712,26.553,2.506,11.169,8.115,18.825,16.672,22.755a48.171,48.171,0,0,0,9.509,3.219,43.808,43.808,0,0,0,9.527,1.068,38.164,38.164,0,0,0,22.1-6.833c6.515-4.582,11.56-11.329,14.993-20.052C103.2,2681.047,104.975,2670.749,105.114,2658.97Zm-1.236-146.83h0c-7.656,10.7-19.441,27.976-32.1,49.5a570.481,570.481,0,0,0-37.494,75.264l75.219-3.72,43.6-92.148a120.2,120.2,0,0,1-26.433-11.543,121.514,121.514,0,0,1-22.789-17.356Zm-18.3-101.463h0l9.607,38.047a95.491,95.491,0,0,0,79.907,71.1V2410.677H85.574ZM380.792,2807H334.864a74.084,74.084,0,0,1,20.531-11.508,69.775,69.775,0,0,1,23.945-4.23h1.453V2807Zm-59.009-260.555H291.446a12.774,12.774,0,1,1,0-25.548h30.336a12.774,12.774,0,1,1,0,25.548Zm27.617-41.439H291.446a12.773,12.773,0,1,1,0-25.546H349.4a12.773,12.773,0,1,1,0,25.546ZM325.451,2366.3H257.917a12.767,12.767,0,0,1-12.774-12.775v-54.661H176.262a12.767,12.767,0,0,1-12.775-12.772V2214.16a12.766,12.766,0,0,1,12.775-12.774h204.53v25.548H189.033v46.379h68.883a12.764,12.764,0,0,1,12.772,12.774v54.66h41.988v-54.66a12.768,12.768,0,0,1,12.775-12.774h55.341v25.546H338.225v54.661a12.768,12.768,0,0,1-12.774,12.775Z" transform="translate(0.503 -2077.696)" fill="#482b7c" stroke="rgba(0,0,0,0)" stroke-miterlimit="10" stroke-width="1"/>
</svg>
