<?xml version="1.0" encoding="UTF-8"?><svg id="Ebene_2" xmlns="http://www.w3.org/2000/svg" viewBox="0 0 261.104 354.323"><defs><style>.cls-1{fill:#000;}</style></defs><g id="Ebene_1-2"><g><path class="cls-1" d="M97.074,58.586c1.13,1.957,3.633,2.628,5.59,1.498,1.957-1.13,2.628-3.633,1.498-5.59l-3.44-5.959c-1.13-1.957-3.633-2.628-5.59-1.498-1.957,1.13-2.628,3.633-1.498,5.59l3.44,5.959Z"/><path class="cls-1" d="M194.556,99.764l-42.649-1.364-42.649-1.364c-2.609-.083-4.787,1.96-4.87,4.568l-.85,26.574c-.083,2.609,1.96,4.787,4.568,4.87l25.458,.814-.646,20.196c-.083,2.609,1.96,4.787,4.568,4.87l12.471,.399,12.48,.399c2.608,.083,4.787-1.96,4.87-4.568l.646-20.196,25.449,.814c2.609,.083,4.787-1.96,4.87-4.568l.85-26.574c.083-2.609-1.96-4.787-4.568-4.87Zm-5.569,26.423l-25.449-.814c-2.609-.083-4.787,1.96-4.87,4.568l-.646,20.195-7.761-.248-7.752-.248,.646-20.195c.083-2.609-1.96-4.787-4.568-4.87l-25.459-.814,.548-17.135,37.93,1.213,37.93,1.213-.548,17.135Z"/><path class="cls-1" d="M150.969,201.457h-21.423c-2.61,0-4.722,2.112-4.722,4.722s2.112,4.722,4.722,4.722h21.423c2.61,0,4.722-2.112,4.722-4.722s-2.112-4.722-4.722-4.722Z"/><path class="cls-1" d="M150.969,216.775h-11.214c-2.61,0-4.722,2.112-4.722,4.722s2.112,4.722,4.722,4.722h11.214c2.61,0,4.722-2.112,4.722-4.722s-2.112-4.722-4.722-4.722Z"/><path class="cls-1" d="M259.597,249.549c-.022-.079-.082-.134-.108-.211-.023-.066,0-.135-.026-.2-8.503-21.688-21.236-40.521-28.795-50.69,.798-1.945,1.474-3.961,2-6.048l4.187-23.996c.36-1.411,.046-2.905-.848-4.058-.895-1.144-2.269-1.817-3.726-1.817l-29.033,4.058c10.274-12.028,16.519-27.595,16.519-44.617,0-37.958-30.885-68.843-68.843-68.843s-68.834,30.885-68.834,68.843c0,17.022,6.243,32.589,16.515,44.617l-7.688-1.241c-1.077,0-5.389-.818-7.946-.798l-32.224-19.301c-9.622-15.804-20.849-18.357-26.787-18.382-4.912-.019-9.597,1.5-13.586,4.277-3.005,2.092-5.614,4.897-7.616,8.301-9.542,16.204,8.677,32.321,9.458,32.991,.061,.054,.141,.067,.204,.117,.055,.043,.074,.114,.131,.155,19.949,14.352,50.047,28.202,62.252,32.83,.143,.199,.276,.388,.432,.602,1.993,2.915,2.921,3.819,6.31,7.402,5.102,4.934,12.628,8.831,18.2,10.682,5.572,1.85,8.12,2.113,8.12,2.113v11.365c0,7.703,1.917,14.971,5.192,21.461l-14.702,58.262c-11.897,2.701-20.822,13.315-20.822,26.009v6.17c0,2.61,2.112,4.722,4.722,4.722h58.229c2.61,0,4.722-2.112,4.722-4.722v-6.17c0-2.059-.285-4.043-.729-5.969v-53.473c.045,.01,.084,.032,.129,.042l5.284,1.236c.277,.062,.545,.076,.812,.09,.06,.002,.115,.03,.175,.03,.015,0,.031-.005,.046-.005s.031,.005,.046,.005c.062,0,.118-.028,.179-.031,.265-.014,.53-.028,.798-.089l5.294-1.236c.048-.011,.09-.033,.138-.045v53.476c-.443,1.926-.729,3.91-.729,5.969v6.17c0,2.61,2.112,4.722,4.722,4.722h58.229c2.61,0,4.722-2.112,4.722-4.722v-6.17c0-12.698-8.931-23.314-20.832-26.012l-14.701-58.257c3.274-6.491,5.192-13.759,5.192-21.462v-11.836s1.81-.267,4.806-.898l13.703,26.528c-.487,18.497,7.561,26.73,12.536,29.972,4.117,2.68,8.876,3.944,13.734,3.775,3.659-.128,7.373-1.069,10.9-2.844,16.795-8.439,10.229-31.861,9.937-32.847ZM10.897,144.228c2.932-4.973,7.802-7.937,13.019-7.916,5.984,.028,11.823,4.054,16.845,11.091l-24.722,15.454c-3.474-3.909-9.145-11.83-5.142-18.629Zm36.64,10.07l28.966,17.61c-4.278,7.127-9.364,16.769-10.846,19.603-11.929-5.393-28.816-13.999-41.732-22.451l23.613-14.762Zm60.328,62.079c-14.15-1.903-25.958-12.132-29.539-26.282l8.65-15.849,20.888,1.785v40.346Zm12.316,53.113c4.13,4.578,9.127,8.356,14.852,11.069v42.064c-4.567-3.64-10.272-5.908-16.554-5.908h-10.216l11.917-47.225Zm15.581,75.389h-48.785v-1.448c0-9.526,7.756-17.273,17.282-17.273h14.221c9.526,0,17.282,7.746,17.282,17.273v1.448Zm19.33-70.051l-4.164,.973-4.164-.973c-10.743-2.513-19.458-9.336-24.551-18.387-.078-.149-.152-.29-.245-.43-2.98-5.462-4.659-11.708-4.659-18.311v-55.719c9.952,5.597,21.406,8.825,33.615,8.825s23.662-3.227,33.615-8.823v55.717c0,6.603-1.679,12.848-4.658,18.309-.094,.142-.169,.284-.247,.435-5.092,9.05-13.804,15.872-24.541,18.384Zm59.787,68.604v1.448h-48.785v-1.448c0-9.526,7.756-17.273,17.282-17.273h14.221c9.526,0,17.282,7.746,17.282,17.273Zm-21.296-26.717h-10.207c-6.282,0-11.986,2.268-16.554,5.908v-42.066c5.722-2.711,10.716-6.488,14.844-11.064l11.916,47.222Zm-42.659-135.353c-32.748,0-59.391-26.643-59.391-59.391s26.643-59.4,59.391-59.4,59.4,26.647,59.4,59.4-26.643,59.391-59.4,59.391Zm43.058-5.33l32.241-4.058-2.702,18.121c-2.731,10.79-10.252,19.287-19.941,23.563l-.162-.313c-1.086,.496-2.173,1.033-3.264,1.61-1.995,.644-4.052,1.137-6.172,1.422v-40.346Zm26.113,69.599l-12.196-23.611c4.261-2.069,9.002-5.19,12.406-8.482,1.437-1.326,3.251-3.055,5.31-5.94,6.446,9.032,15.379,22.825,22.317,38.437l-27.836-.404Zm25.322,28.331c-5.17,2.589-10.869,2.437-15.231-.41-5.012-3.269-7.736-9.818-8.139-18.454l29.156,.425c.823,5.164,1.317,14.872-5.787,18.439Z"/><path class="cls-1" d="M83.815,68.572c1.532,1.843,4.268,2.095,6.111,.563,1.843-1.532,2.095-4.268,.563-6.111l-11.75-14.135c-1.532-1.843-4.268-2.095-6.111-.563-1.843,1.532-2.095,4.268-.563,6.111l11.75,14.135Z"/><path class="cls-1" d="M213.089,36.554l-1.311,8.776c-.163,1.092-1.181,1.846-2.273,1.683l-7.537-1.125c-1.092-.163-2.11,.59-2.273,1.683l-.694,4.647c-.163,1.092,.59,2.11,1.683,2.274l7.537,1.126c1.092,.163,1.846,1.181,1.683,2.273l-1.311,8.777c-.163,1.092,.59,2.11,1.683,2.273l5.404,.807c1.092,.163,2.11-.59,2.273-1.683l1.311-8.777c.163-1.092,1.181-1.846,2.273-1.683l7.539,1.126c1.092,.163,2.11-.59,2.273-1.683l.694-4.647c.163-1.093-.59-2.11-1.683-2.274l-7.539-1.125c-1.093-.163-1.846-1.181-1.683-2.273l1.311-8.777c.163-1.092-.59-2.11-1.683-2.273l-5.404-.807c-1.093-.163-2.11,.59-2.273,1.683Z"/><path class="cls-1" d="M196.948,22.774l4.415,.66c.64,.096,1.081,.692,.986,1.332l-.768,5.142c-.095,.64,.346,1.236,.986,1.332l3.166,.473c.64,.096,1.236-.346,1.332-.986l.768-5.142c.096-.64,.692-1.081,1.332-.986l4.417,.66c.64,.096,1.236-.346,1.332-.986l.407-2.723c.096-.64-.346-1.236-.986-1.332l-4.417-.659c-.64-.096-1.081-.692-.986-1.332l.768-5.142c.095-.64-.346-1.236-.986-1.332l-3.166-.473c-.64-.096-1.236,.346-1.332,.986l-.768,5.142c-.096,.64-.692,1.081-1.332,.986l-4.416-.659c-.64-.096-1.236,.346-1.332,.986l-.407,2.722c-.096,.64,.346,1.236,.986,1.332Z"/><path class="cls-1" d="M216.148,7.224l2.772,.414c.402,.06,.679,.434,.619,.836l-.482,3.228c-.06,.402,.217,.776,.619,.836l1.988,.297c.402,.06,.776-.217,.836-.619l.482-3.228c.06-.402,.434-.679,.836-.619l2.773,.414c.402,.06,.776-.217,.836-.619l.255-1.709c.06-.402-.217-.776-.619-.836l-2.773-.414c-.402-.06-.679-.434-.619-.836l.482-3.228c.06-.402-.217-.776-.619-.836l-1.988-.297c-.402-.06-.776,.217-.836,.619l-.482,3.228c-.06,.402-.434,.679-.836,.619l-2.772-.414c-.402-.06-.776,.217-.836,.619l-.255,1.709c-.06,.402,.217,.776,.619,.836Z"/></g></g></svg>