<svg xmlns="http://www.w3.org/2000/svg" width="116.789" height="137.114" viewBox="0 0 116.789 137.114">
  <path id="Path_78" data-name="Path 78" d="M55.241,13a15.191,15.191,0,0,0-.678,4.5,5.083,5.083,0,0,0,5.081,5.081H90.132a5.081,5.081,0,0,0,5.081-5.081,15.244,15.244,0,0,0-.677-4.5m-39.3,0A15.251,15.251,0,0,1,69.807,2.25H79.97A15.247,15.247,0,0,1,94.536,13m-39.3,0q-3.821.234-7.615.542A14.749,14.749,0,0,0,34.238,28.388V42.9M94.536,13q3.821.234,7.615.542a14.749,14.749,0,0,1,13.388,14.851V98.8A15.244,15.244,0,0,1,100.3,114.039H85.051M34.238,42.9H11.372A7.625,7.625,0,0,0,3.75,50.523v76.22a7.625,7.625,0,0,0,7.622,7.622H77.429a7.625,7.625,0,0,0,7.622-7.622v-12.7M34.238,42.9H77.429a7.625,7.625,0,0,1,7.622,7.622v63.516M29.157,93.714l10.163,10.163L59.645,78.47" transform="translate(-1.25 0.25)" fill="none" stroke="#ebfe01" stroke-linecap="round" stroke-linejoin="round" stroke-width="5"/>
</svg>
