<svg xmlns="http://www.w3.org/2000/svg" width="2017.044" height="70.88" viewBox="0 0 2017.044 70.88">
  <g id="Group_407" data-name="Group 407" transform="translate(23.253 -12348.81)">
    <g id="Group_338" data-name="Group 338" transform="translate(405.625 12388.469) rotate(-90)">
      <rect id="Rectangle_16" data-name="Rectangle 16" width="84.381" height="8.438" rx="4.219" transform="translate(0 344.696) rotate(-90)" fill="#fff"/>
      <rect id="Rectangle_19" data-name="Rectangle 19" width="200.405" height="8.438" rx="4.219" transform="translate(0 200.405) rotate(-90)" fill="#fff"/>
      <rect id="Rectangle_17" data-name="Rectangle 17" width="33.752" height="8.438" rx="4.219" transform="translate(0 391.527) rotate(-90)" fill="#fff"/>
      <rect id="Rectangle_22" data-name="Rectangle 22" width="8.438" height="8.438" rx="4.219" transform="translate(0 413.044) rotate(-90)" fill="#fff"/>
      <rect id="Rectangle_23" data-name="Rectangle 23" width="8.438" height="8.438" rx="4.219" transform="translate(0 493.628) rotate(-90)" fill="#fff"/>
      <rect id="Rectangle_18" data-name="Rectangle 18" width="33.752" height="8.438" rx="4.219" transform="translate(0 247.236) rotate(-90)" fill="#fff"/>
    </g>
    <g id="Group_339" data-name="Group 339" transform="translate(-23.253 12419.689) rotate(-90)">
      <rect id="Rectangle_16-2" data-name="Rectangle 16" width="84.381" height="8.438" rx="4.219" transform="translate(0 344.696) rotate(-90)" fill="#fff"/>
      <rect id="Rectangle_19-2" data-name="Rectangle 19" width="200.405" height="8.438" rx="4.219" transform="translate(0 200.405) rotate(-90)" fill="#fff"/>
      <rect id="Rectangle_17-2" data-name="Rectangle 17" width="33.752" height="8.438" rx="4.219" transform="translate(0 391.527) rotate(-90)" fill="#fff"/>
      <rect id="Rectangle_22-2" data-name="Rectangle 22" width="8.438" height="8.438" rx="4.219" transform="translate(0 413.044) rotate(-90)" fill="#fff"/>
      <rect id="Rectangle_18-2" data-name="Rectangle 18" width="33.752" height="8.438" rx="4.219" transform="translate(0 247.236) rotate(-90)" fill="#fff"/>
    </g>
    <g id="Group_341" data-name="Group 341" transform="translate(1580.747 12419.689) rotate(-90)">
      <rect id="Rectangle_16-3" data-name="Rectangle 16" width="84.381" height="8.438" rx="4.219" transform="translate(0 344.696) rotate(-90)" fill="#fff"/>
      <rect id="Rectangle_19-3" data-name="Rectangle 19" width="200.405" height="8.438" rx="4.219" transform="translate(0 200.405) rotate(-90)" fill="#fff"/>
      <rect id="Rectangle_17-3" data-name="Rectangle 17" width="33.752" height="8.438" rx="4.219" transform="translate(0 391.527) rotate(-90)" fill="#fff"/>
      <rect id="Rectangle_22-3" data-name="Rectangle 22" width="8.438" height="8.438" rx="4.219" transform="translate(0 413.044) rotate(-90)" fill="#fff"/>
      <rect id="Rectangle_18-3" data-name="Rectangle 18" width="33.752" height="8.438" rx="4.219" transform="translate(0 247.236) rotate(-90)" fill="#fff"/>
    </g>
    <g id="Group_340" data-name="Group 340" transform="translate(490.415 12348.81) rotate(90)">
      <rect id="Rectangle_16-4" data-name="Rectangle 16" width="84.381" height="8.438" rx="4.219" transform="translate(0 344.696) rotate(-90)" fill="#fff"/>
      <rect id="Rectangle_19-4" data-name="Rectangle 19" width="200.405" height="8.438" rx="4.219" transform="translate(0 200.405) rotate(-90)" fill="#fff"/>
      <rect id="Rectangle_17-4" data-name="Rectangle 17" width="33.752" height="8.438" rx="4.219" transform="translate(0 391.527) rotate(-90)" fill="#fff"/>
      <rect id="Rectangle_22-4" data-name="Rectangle 22" width="8.438" height="8.438" rx="4.219" transform="translate(0 413.044) rotate(-90)" fill="#fff"/>
      <rect id="Rectangle_23-2" data-name="Rectangle 23" width="8.438" height="8.438" rx="4.219" transform="translate(0 493.628) rotate(-90)" fill="#fff"/>
      <rect id="Rectangle_18-4" data-name="Rectangle 18" width="33.752" height="8.438" rx="4.219" transform="translate(0 247.236) rotate(-90)" fill="#fff"/>
    </g>
    <rect id="Rectangle_19-5" data-name="Rectangle 19" width="200.405" height="8.438" rx="4.219" transform="translate(1339.011 12348.81)" fill="#fff"/>
    <rect id="Rectangle_17-5" data-name="Rectangle 17" width="33.752" height="8.438" rx="4.219" transform="translate(1116.888 12348.81)" fill="#fff"/>
    <rect id="Rectangle_23-3" data-name="Rectangle 23" width="8.438" height="8.438" rx="4.219" transform="translate(1014.787 12348.81)" fill="#fff"/>
    <rect id="Rectangle_18-5" data-name="Rectangle 18" width="33.752" height="8.438" rx="4.219" transform="translate(1261.179 12348.81)" fill="#fff"/>
  </g>
</svg>
