<svg xmlns="http://www.w3.org/2000/svg" width="268.56" height="75" viewBox="0 0 268.56 75"><g transform="translate(0.129)"><rect width="75" height="75" rx="4" transform="translate(-0.129)" fill="#482b7c"/><path d="M107.24,88.659,95.26,60.2,83.1,88.659H79.241L93.47,55.334A2.012,2.012,0,0,1,95.26,54.1a1.915,1.915,0,0,1,1.79,1.238l14.091,33.325Z" transform="translate(-57.71 -34.27)" fill="#fff"/><path d="M9.913-10.971A4.138,4.138,0,0,0,6.325-12.88c-2.99,0-4.761,2.484-4.761,6.67C1.564-2.162,3.335.23,6.325.23A4.08,4.08,0,0,0,10.12-2.116L10.511,0h2.3V-17.02h-2.9ZM7.222-2.392c-1.932,0-2.645-1.081-2.645-4.048,0-2.783.713-3.818,2.645-3.818,1.955,0,2.691,1.081,2.691,4.048C9.913-3.427,9.177-2.392,7.222-2.392ZM27.761-3.611V-8.6c0-2.622-1.748-4.278-4.807-4.278a14.4,14.4,0,0,0-4.692.943v2.622a9.35,9.35,0,0,1,4.163-.989c1.656,0,2.415.667,2.415,2.185v.207c-5.681.046-7.82,1.748-7.82,4.577C17.02-1.127,18.4.23,20.976.23a4.48,4.48,0,0,0,4.186-2.277L25.553,0h2.875ZM21.873-2.369c-1.288,0-1.817-.552-1.817-1.495,0-1.495,1.288-2.139,4.784-2.162v.851A2.7,2.7,0,0,1,21.873-2.369ZM43.056-12.65h-5.29v-2.829H35.4l-.529,2.829-2.645.575v1.909h2.645V-4.3c0,2.53,1.587,4.531,4.968,4.531a10.294,10.294,0,0,0,3.22-.552V-2.967a8.028,8.028,0,0,1-2.76.529c-1.863,0-2.53-.759-2.53-2.277v-5.451h5.29ZM58.351-3.611V-8.6c0-2.622-1.748-4.278-4.807-4.278a14.4,14.4,0,0,0-4.692.943v2.622a9.35,9.35,0,0,1,4.163-.989c1.656,0,2.415.667,2.415,2.185v.207c-5.681.046-7.82,1.748-7.82,4.577C47.61-1.127,48.99.23,51.566.23a4.48,4.48,0,0,0,4.186-2.277L56.143,0h2.875ZM52.463-2.369c-1.288,0-1.817-.552-1.817-1.495,0-1.495,1.288-2.139,4.784-2.162v.851A2.7,2.7,0,0,1,52.463-2.369ZM74.037-16.1H70.4L68.54-11.339,66.677-16.1H63.043L62.192,0h2.99l.46-12.558,2.277,5.566h1.242l2.277-5.566L71.9,0h2.99Zm14.9,12.489V-8.6c0-2.622-1.748-4.278-4.807-4.278a14.4,14.4,0,0,0-4.692.943v2.622A9.35,9.35,0,0,1,83.6-10.3c1.656,0,2.415.667,2.415,2.185v.207c-5.681.046-7.82,1.748-7.82,4.577C78.2-1.127,79.58.23,82.156.23a4.48,4.48,0,0,0,4.186-2.277L86.733,0h2.875ZM83.053-2.369c-1.288,0-1.817-.552-1.817-1.495,0-1.495,1.288-2.139,4.784-2.162v.851A2.7,2.7,0,0,1,83.053-2.369ZM105.57,0l-4.876-6.532,4.692-6.118H101.8L98.371-7.843H96.83V-17.02h-2.9V0h2.9V-5.29h1.541L101.982,0Zm14.7-6.67c0-3.91-1.817-6.21-5.474-6.21-4,0-6.164,2.783-6.164,6.969,0,3.91,2.139,6.141,5.865,6.141A10.661,10.661,0,0,0,119.255-.9V-3.5a9.994,9.994,0,0,1-4.393,1.081c-1.932,0-2.921-.759-3.151-2.829h8.51C120.244-5.7,120.267-6.141,120.267-6.67Zm-5.658-3.565c1.725,0,2.415.713,2.6,2.737h-5.5C111.941-9.5,112.815-10.235,114.609-10.235Zm20.861-3.151a7.254,7.254,0,0,0-5.566,3.128l-.437-2.392h-4.692v2.576h2.392v7.5h-3.151V0h10.718V-2.576h-4.669V-8.418a8.587,8.587,0,0,1,5.4-1.725Zm13.455,15.41a15.286,15.286,0,0,1-3.611-10.35,14.633,14.633,0,0,1,3.611-9.89h-2.967a15.808,15.808,0,0,0-3.726,10.35c0,3.565,1.127,6.555,3.726,9.89Zm7.475-20.24a15.286,15.286,0,0,1,3.611,10.35,14.633,14.633,0,0,1-3.611,9.89h2.967a15.808,15.808,0,0,0,3.726-10.35c0-3.565-1.127-6.555-3.726-9.89Zm17.25,9.775h3.91V-12.65h-3.91ZM175.628,0l-3.2,4.37h3.22L177.56,0V-4.209h-3.91V0Z" transform="translate(90.871 46)" fill="#1d1e39"/></g></svg>
