<svg xmlns="http://www.w3.org/2000/svg" height="250" viewBox="0 0 271.703 383.291">
    <path d="m178.267 130.08-42.585-2.71-42.585-2.71a4.719 4.719 0 0 0-5.012 4.412l-1.688 26.534a4.719 4.719 0 0 0 4.412 5.012l25.411 1.617-1.283 20.165a4.719 4.719 0 0 0 4.412 5.012l12.462.793 12.452.792a4.718 4.718 0 0 0 5.012-4.412l1.283-20.165 25.42 1.618a4.72 4.72 0 0 0 5.012-4.412l1.688-26.534a4.719 4.719 0 0 0-4.412-5.012Zm-6.401 26.234-25.42-1.618a4.719 4.719 0 0 0-5.012 4.412l-1.283 20.165-7.74-.493-7.75-.493 1.283-20.165a4.719 4.719 0 0 0-4.412-5.012l-25.411-1.617 1.089-17.109 37.873 2.41 37.872 2.41-1.089 17.109ZM159.799 235.147a4.72 4.72 0 0 0-4.722-4.722h-21.423c-2.61 0-4.722 2.112-4.722 4.722s2.112 4.722 4.722 4.722h21.423a4.72 4.72 0 0 0 4.722-4.722ZM144.869 245.743h-11.214c-2.61 0-4.722 2.112-4.722 4.722s2.112 4.722 4.722 4.722h11.214c2.61 0 4.722-2.112 4.722-4.722s-2.112-4.722-4.722-4.722Z" class="cls-1" />
    <path d="M270.146 263.843c-2.136-5.541-8.514-15.125-26.708-18.498l-27.528-22.553-.706-.546c.08-.293.167-.583.242-.878l5.035-19.938a4.712 4.712 0 0 0-4.575-5.875h-29.887c10.272-12.028 16.515-27.595 16.515-44.617 0-37.958-30.876-68.843-68.834-68.843s-68.843 30.885-68.843 68.843c0 17.022 6.244 32.589 16.519 44.617l-29.033-4.058a4.733 4.733 0 0 0-3.726 1.817 4.715 4.715 0 0 0-.849 4.058l4.151 23.791-21.168 14.265c-18.428 1.661-25.673 10.609-28.316 15.927-2.185 4.4-2.889 9.274-2.157 14.078.551 3.62 1.917 7.199 4.089 10.497 10.331 15.713 32.833 6.476 33.779 6.071.075-.031.122-.097.195-.132.063-.03.135-.016.197-.049 18.015-9.612 32.283-21.051 41.547-29.389.864.318 1.685.579 2.429.756 4.932 1.173 8.128 1.644 8.128 1.644v11.836c0 7.703 1.918 14.971 5.192 21.462l-14.701 58.257c-11.902 2.698-20.832 13.315-20.832 26.012v6.17a4.72 4.72 0 0 0 4.722 4.722h58.229a4.72 4.72 0 0 0 4.722-4.722v-6.17c0-2.059-.285-4.043-.729-5.969v-53.476c.048.011.091.034.138.045l5.293 1.236c.268.062.533.075.798.089.062.002.117.031.179.031.015 0 .031-.005.046-.005s.031.005.046.005c.06 0 .115-.028.175-.03.267-.015.534-.028.812-.09l5.284-1.236c.045-.01.084-.031.129-.042v53.473c-.443 1.926-.729 3.91-.729 5.969v6.17a4.72 4.72 0 0 0 4.722 4.722h58.229a4.72 4.72 0 0 0 4.722-4.722v-6.17c0-12.694-8.925-23.308-20.822-26.009l-14.702-58.262c3.275-6.49 5.192-13.758 5.192-21.461v-11.365s2.549-.262 8.12-2.113a45.724 45.724 0 0 0 2.906-1.086c8.377 9.512 24.143 25.873 43.576 38.695.058.038.13.031.19.067.07.042.111.111.184.15.904.492 22.447 11.787 34.196-2.885 2.47-3.081 4.163-6.518 5.049-10.07 1.176-4.716.93-9.634-.835-14.218Zm-257.893 6.896c-3.17-4.825-3.679-10.503-1.359-15.176 2.666-5.357 8.855-8.821 17.386-10.223l2.958 29.004c-5.041 1.392-14.651 2.986-18.986-3.606Zm28.032-.732-2.828-27.704 17.798-11.994a44.721 44.721 0 0 0 2.754 4.792c2.474 3.797 4.646 5.868 6.311 7.405 1.938 1.874 4.31 3.694 6.78 5.296-7.18 6.346-17.015 14.038-30.815 22.205Zm50.358-24.661c-14.15-1.903-25.957-12.132-29.538-26.282l-2.702-18.121 32.24 4.058v40.346Zm12.315 53.116a47.115 47.115 0 0 0 14.844 11.064v42.066c-4.567-3.64-10.272-5.908-16.554-5.908H91.041l11.916-47.222Zm15.573 75.386H69.746V372.4c0-9.526 7.756-17.273 17.282-17.273h14.221c9.526 0 17.282 7.746 17.282 17.273v1.448Zm19.33-70.051-4.164.973-4.164-.973c-10.736-2.513-19.448-9.334-24.541-18.384-.079-.151-.153-.293-.247-.435a38.136 38.136 0 0 1-4.658-18.309v-55.717c9.952 5.596 21.407 8.823 33.615 8.823s23.663-3.228 33.615-8.825v55.719c0 6.604-1.68 12.849-4.66 18.311a4.808 4.808 0 0 0-.245.43c-5.093 9.051-13.808 15.874-24.551 18.387Zm59.787 68.604v1.448h-48.785v-1.448c0-9.526 7.756-17.273 17.282-17.273h14.221c9.527 0 17.282 7.746 17.282 17.273Zm-21.287-26.717h-10.216c-6.281 0-11.986 2.268-16.554 5.908v-42.064a47.155 47.155 0 0 0 14.852-11.069l11.917 47.225Zm-42.659-135.353c-32.757 0-59.4-26.643-59.4-59.391s26.643-59.4 59.4-59.4 59.391 26.647 59.391 59.4-26.643 59.391-59.391 59.391Zm43.058-5.33h33.089l-3.55 14.064c-3.581 14.15-15.388 24.379-29.539 26.282v-40.346Zm53.966 73.875c-14.659-10.638-26.844-23.038-34.253-31.258 2.392-1.517 4.674-3.237 6.607-5.107 3.389-3.583 4.317-4.487 6.31-7.402.78-1.181 1.5-2.407 2.169-3.667l24.563 20.124-5.396 27.311Zm27.839 3.352c-4.967 6.206-14.36 3.703-19.24 1.824l5.65-28.607c8.364 2.191 14.203 6.217 16.357 11.8 1.877 4.859.84 10.465-2.768 14.983ZM224.149 107.741c1.744-1.652 3.762-2.474 6.409-2.582 2.805-.108 6.794.026 10.005-3.161 3.37-3.344 3.786-8.794-1.683-14.305-3.148-3.172-6.341-4.725-8.669-5.405l-3.58 6.543c1.776.362 3.747 1.476 5.045 2.784 1.652 1.823 1.646 3.324.576 4.387-1.15 1.141-3.402 1.251-5.733 1.439-3.675.263-6.247 1.556-8.151 3.603l-1.031 1.023 6.217 6.265.595-.59ZM210.693 114.562c2.44 2.458 5.797 2.353 8.137.031 2.419-2.479 2.471-5.757.071-8.176-2.321-2.339-5.678-2.392-8.137.048-2.339 2.322-2.431 5.718-.071 8.097ZM225.605 129.904l-6.83.838a4.091 4.091 0 1 0 .997 8.123l6.83-.838a4.091 4.091 0 1 0-.997-8.123ZM196.416 94.661a4.34 4.34 0 0 0 5.928-1.588l9.19-15.918a4.34 4.34 0 0 0-7.516-4.34l-9.19 15.918a4.34 4.34 0 0 0 1.588 5.928ZM41.264 120.659a4.49 4.49 0 1 0 3.974 8.055 4.49 4.49 0 1 0-3.973-8.055ZM32.431 117.583a8.378 8.378 0 1 0-7.412-15.027 8.378 8.378 0 0 0 7.412 15.027ZM43.24 93.642c7.344-3.622 10.36-12.511 6.739-19.855-3.622-7.344-12.511-10.361-19.855-6.739-7.344 3.622-10.36 12.511-6.739 19.855 3.622 7.344 12.511 10.361 19.855 6.739ZM72.178 65.722h88.052c18.074 0 32.861-14.788 32.861-32.861C193.091 14.787 178.304 0 160.23 0H72.178C54.104 0 39.317 14.788 39.317 32.861c0 18.074 14.788 32.861 32.861 32.861Zm51.771-37.034c4.437 0 7.418 3.054 7.491 7.636 0 4.509-2.982 7.636-7.564 7.636-4.364 0-7.418-3.127-7.418-7.636s3.128-7.636 7.491-7.636Zm-24.291 0c4.437 0 7.418 3.054 7.491 7.636 0 4.509-2.982 7.636-7.564 7.636-4.364 0-7.418-3.127-7.418-7.636s3.127-7.636 7.491-7.636Zm-24.291 0c4.436 0 7.418 3.054 7.491 7.636 0 4.509-2.982 7.636-7.564 7.636-4.364 0-7.418-3.127-7.418-7.636s3.127-7.636 7.491-7.636Z" class="cls-1" />
</svg>