<svg id="Component_1_1" data-name="Component 1 – 1" xmlns="http://www.w3.org/2000/svg" xmlns:xlink="http://www.w3.org/1999/xlink" width="268.234" height="238.489" viewBox="0 0 268.234 238.489">
  <defs>
    <clipPath id="clip-path">
      <rect id="Rectangle_14" data-name="Rectangle 14" width="180.774" height="223.584" fill="#1d1e39"/>
    </clipPath>
  </defs>
  <g id="Group_5" data-name="Group 5" transform="matrix(0.996, -0.087, 0.087, 0.996, 102.661, 25.756)">
    <g id="Group_4" data-name="Group 4" transform="translate(-32.999 -12.925)" clip-path="url(#clip-path)">
      <path id="Path_2" data-name="Path 2" d="M95.847,23.478l-2.382-4.126a2.833,2.833,0,1,1,4.907-2.833l2.382,4.126a2.833,2.833,0,0,1-4.907,2.833" transform="translate(-28.638 -4.646)" fill="#1d1e39"/>
      <path id="Path_3" data-name="Path 3" d="M94.747,141.661v7.869a32.884,32.884,0,0,0,3.595,14.858L88.163,204.725a18.51,18.51,0,0,0-14.416,18.008V227a3.267,3.267,0,0,0,3.269,3.269h40.315A3.267,3.267,0,0,0,120.6,227v-4.271a18.364,18.364,0,0,0-.5-4.133V181.578c.031.007.058.022.089.029l3.658.856a3.39,3.39,0,0,0,.562.062c.042,0,.08.02.121.02.01,0,.021,0,.032,0s.021,0,.032,0c.044,0,.082-.019.125-.021a3.215,3.215,0,0,0,.552-.062l3.665-.856c.033-.008.063-.024.1-.031V218.6a18.324,18.324,0,0,0-.5,4.133V227a3.267,3.267,0,0,0,3.269,3.269h40.314A3.267,3.267,0,0,0,175.376,227v-4.271a18.51,18.51,0,0,0-14.423-18.01l-10.178-40.334a32.889,32.889,0,0,0,3.6-14.859v-8.195s2.213-.326,5.627-1.138c3.449-.82,9.066-3.98,12.6-7.4a25.069,25.069,0,0,0,4.37-5.127,31,31,0,0,0,4.19-9.507l2.9-16.614a3.262,3.262,0,0,0-3.167-4.068l-20.1,2.81a47.659,47.659,0,1,0-72.45,0l-5.323-.859c-1.009,0-6.127-1.041-6.773-.271-3.123,3.725-11.013,18.956-11.013,18.956,4.72,5.364,3.761,5.211,6.93,9.556a34.451,34.451,0,0,0,4.369,5.125,35.785,35.785,0,0,0,12.6,7.395,30.529,30.529,0,0,0,5.622,1.463m59.623-34.828,22.321-2.809-1.871,12.546a24.4,24.4,0,0,1-20.451,18.2Zm-.276,97.4h-7.067a18.32,18.32,0,0,0-11.461,4.09V179.2a32.61,32.61,0,0,0,10.277-7.66Zm-19.032,18.5a11.975,11.975,0,0,1,11.965-11.959h9.846a11.976,11.976,0,0,1,11.965,11.959v1H135.062Zm-30.381-60.227a3.247,3.247,0,0,0-.17-.3,26.4,26.4,0,0,1-3.226-12.678V110.953a47.387,47.387,0,0,0,46.546,0V149.53a26.411,26.411,0,0,1-3.225,12.676,3.158,3.158,0,0,0-.172.3,26.3,26.3,0,0,1-16.99,12.728l-2.883.674-2.883-.674a26.3,26.3,0,0,1-17-12.729M92.25,210.774H102.1a11.976,11.976,0,0,1,11.965,11.959v1H80.285v-1A11.976,11.976,0,0,1,92.25,210.774m11.024-39.235a32.653,32.653,0,0,0,10.283,7.664v29.123a18.318,18.318,0,0,0-11.46-4.09H95.023ZM83.44,69.405a41.122,41.122,0,1,1,41.118,41.119A41.169,41.169,0,0,1,83.44,69.405m11.307,65.362a24.4,24.4,0,0,1-20.451-18.2L80.285,105.6l14.462,1.235Z" transform="translate(-20.067 -6.689)" fill="#1d1e39"/>
      <path id="Path_4" data-name="Path 4" d="M8.458,127.029c.042.037.1.046.141.081s.051.079.091.107c14.516,10.443,36.8,20.508,44.3,23.174.158-2.2-.566-4.9-.11-7.048C46.2,140.917,28.8,132.7,16.564,124.693l16.348-10.22L54.537,127.62c.949-1.873,4.705-2.217,6.663-3.8L35.134,108.207C28.472,97.265,20.7,95.5,16.588,95.48a16.283,16.283,0,0,0-9.406,2.961,18.192,18.192,0,0,0-5.272,5.747c-6.606,11.219,6.007,22.377,6.548,22.841M7.545,107.5a10.523,10.523,0,0,1,9.014-5.481c4.142.019,8.186,2.807,11.663,7.679L11.1,120.4c-2.405-2.706-6.331-8.19-3.56-12.9" transform="translate(0 -29.375)" fill="#1d1e39"/>
      <path id="Path_5" data-name="Path 5" d="M148.135,91.908l17.62.564a3.267,3.267,0,0,0,3.372-3.163l.588-18.4a3.267,3.267,0,0,0-3.163-3.372l-29.528-.944L107.5,65.649a3.267,3.267,0,0,0-3.372,3.163l-.589,18.4a3.267,3.267,0,0,0,3.163,3.372l17.626.564-.447,13.983a3.267,3.267,0,0,0,3.163,3.372l8.634.276,8.64.276a3.266,3.266,0,0,0,3.372-3.163Zm-3.058-6.64a3.267,3.267,0,0,0-3.372,3.163l-.447,13.983-5.373-.172-5.367-.172.447-13.982a3.267,3.267,0,0,0-3.163-3.372l-17.626-.564.379-11.863,26.261.841,26.261.84-.38,11.863Z" transform="translate(-31.853 -20.197)" fill="#1d1e39"/>
      <path id="Path_6" data-name="Path 6" d="M142.925,176.609H128.093a3.269,3.269,0,1,1,0-6.538h14.832a3.269,3.269,0,1,1,0,6.538" transform="translate(-38.403 -52.323)" fill="#1d1e39"/>
      <path id="Path_7" data-name="Path 7" d="M138.3,185.389h7.764a3.269,3.269,0,0,1,0,6.539H138.3a3.269,3.269,0,1,1,0-6.539" transform="translate(-41.543 -57.036)" fill="#1d1e39"/>
      <path id="Path_8" data-name="Path 8" d="M195.876,180.583l11.307,21.89c-.337,12.806,5.235,18.506,8.68,20.751a16.286,16.286,0,0,0,9.508,2.614,18.2,18.2,0,0,0,7.547-1.969c11.629-5.843,7.083-22.059,6.88-22.742-.016-.055-.057-.093-.074-.146s0-.093-.019-.138c-6.849-17.469-17.666-32.27-22.189-38.053-1.45,1.743-2.562,3.8-3.975,5.576a161.136,161.136,0,0,1,18.18,30.328l-19.272-.28L200.9,176.061a32.622,32.622,0,0,0-5.661,3.2ZM213.8,204.969l20.185.294c.57,3.575.912,10.3-4.006,12.766a10.519,10.519,0,0,1-10.545-.284c-3.471-2.263-5.355-6.8-5.634-12.777" transform="translate(-60.066 -50.083)" fill="#1d1e39"/>
      <path id="Path_9" data-name="Path 9" d="M79.892,30.649l-8.135-9.786a3,3,0,0,1,4.621-3.841l8.134,9.786a3,3,0,1,1-4.621,3.841" transform="translate(-21.863 -4.903)" fill="#1d1e39"/>
      <path id="Path_10" data-name="Path 10" d="M212.533,24.712l5.218.779a1.385,1.385,0,0,0,1.574-1.165l.907-6.077a1.385,1.385,0,0,1,1.574-1.165l3.741.559a1.385,1.385,0,0,1,1.165,1.574l-.908,6.077a1.384,1.384,0,0,0,1.165,1.574l5.219.78a1.384,1.384,0,0,1,1.165,1.574l-.48,3.217A1.384,1.384,0,0,1,231.3,33.6l-5.22-.78a1.385,1.385,0,0,0-1.574,1.165l-.908,6.077a1.385,1.385,0,0,1-1.574,1.165l-3.741-.559a1.385,1.385,0,0,1-1.165-1.574l.908-6.077a1.384,1.384,0,0,0-1.165-1.574l-5.218-.78a1.385,1.385,0,0,1-1.165-1.574l.481-3.217a1.385,1.385,0,0,1,1.574-1.165" transform="translate(-64.75 -5.251)" fill="#1d1e39"/>
      <path id="Path_11" data-name="Path 11" d="M204.231,4.015l2.742.409a.727.727,0,0,0,.827-.612L208.275.62A.728.728,0,0,1,209.1.008L211.068.3a.728.728,0,0,1,.612.827L211.2,4.321a.728.728,0,0,0,.612.827l2.742.409a.728.728,0,0,1,.612.827l-.253,1.69a.727.727,0,0,1-.827.612l-2.742-.41a.728.728,0,0,0-.827.612l-.477,3.192a.727.727,0,0,1-.827.612l-1.966-.293a.728.728,0,0,1-.612-.827l.476-3.192a.727.727,0,0,0-.611-.827l-2.742-.41a.727.727,0,0,1-.612-.827l.253-1.69a.727.727,0,0,1,.827-.612" transform="translate(-62.498 0)" fill="#1d1e39"/>
      <path id="Path_12" data-name="Path 12" d="M245.754,17.312l1.919.287a.509.509,0,0,0,.579-.429l.334-2.235a.509.509,0,0,1,.579-.429l1.376.206a.509.509,0,0,1,.429.579l-.334,2.235a.509.509,0,0,0,.429.579l1.919.287a.509.509,0,0,1,.429.579l-.177,1.184a.509.509,0,0,1-.579.428l-1.92-.287a.509.509,0,0,0-.579.429l-.334,2.235a.509.509,0,0,1-.579.429l-1.376-.206a.509.509,0,0,1-.429-.579l.334-2.235a.509.509,0,0,0-.429-.579l-1.919-.287a.509.509,0,0,1-.428-.579l.177-1.183a.509.509,0,0,1,.579-.429" transform="translate(-75.373 -4.461)" fill="#1d1e39"/>
    </g>
  </g>
  <text id="I_eat_Data_for_breakfast._" data-name="I eat Data for breakfast. " transform="translate(0 79.701) rotate(-8)" fill="#1d1e39" font-size="12" font-family="Helvetica" opacity="0.003"><tspan x="22.315" y="9">I eat Data for </tspan><tspan x="30.653" y="23">breakfast. </tspan></text>
</svg>
