<?xml version="1.0" encoding="UTF-8"?><svg id="Ebene_1" xmlns="http://www.w3.org/2000/svg" viewBox="0 0 195.48 125.671"><defs><style>.cls-2{fill:#1d1e3a;}</style></defs><path class="cls-2" d="M79.707,84.062c-1.366,0-2.478-1.112-2.478-2.478v-21.889c0-1.366,1.112-2.478,2.478-2.478h36.142c1.366,0,2.479,1.112,2.479,2.478v21.889c0,1.366-1.112,2.478-2.479,2.478h-36.142Zm2.478-4.956h31.186v-16.933h-31.186v16.933Z"/><path class="cls-2" d="M85.832,28.756c-1.366,0-2.478-1.112-2.478-2.478s1.112-2.478,2.478-2.478h23.893c1.366,0,2.479,1.112,2.479,2.478s-1.112,2.478-2.479,2.478h-23.893Z"/><path class="cls-2" d="M128.556,65.503c-2.116,0-3.837-1.721-3.837-3.837s1.721-3.836,3.837-3.836,3.837,1.721,3.837,3.836-1.721,3.837-3.837,3.837Z"/><path class="cls-2" d="M128.556,79.048c-2.116,0-3.837-1.721-3.837-3.836s1.721-3.837,3.837-3.837,3.837,1.721,3.837,3.837-1.721,3.836-3.837,3.836Z"/><path class="cls-2" d="M6.196,125.671c.63-6.985,1.76-14.662,3.755-21.678l.272-.955,15.982,10.374,3.127,12.258h5.113l-3.459-13.558,11.411-24.213,2.638,31.75c.206,2.046,.56,4.055,1.041,6.021h5.098c-.574-2.088-.982-4.25-1.206-6.47l-5.88-70.77h107.38l-5.882,70.727c-.225,2.236-.636,4.412-1.215,6.514h5.099c.486-1.98,.842-4.004,1.05-6.065l2.637-31.706,11.411,24.212-3.459,13.558h5.113l3.127-12.258,15.982-10.374,.272,.955c1.995,7.017,3.125,14.693,3.755,21.678h4.989c-.771-8.755-2.311-18.672-5.318-27.286-.252-.715-.826-1.285-1.547-1.527-.257-.091-.525-.137-.796-.137-.474,0-.94,.14-1.348,.406l-5.155,3.348-4.25-19.516h7.563c1.367,0,2.478-1.112,2.478-2.478v-3.192c0-17.541-14.271-31.812-31.812-31.812h-26.105l-.114-.594c-1.886-9.763-9.634-41.616-30.165-41.616s-28.278,31.853-30.162,41.616l-.115,.594h-26.105c-17.541,0-31.812,14.271-31.812,31.812v3.192c0,1.367,1.112,2.478,2.478,2.478h7.561l-4.248,19.519-5.159-3.351c-.405-.265-.869-.405-1.343-.405-.272,0-.541,.046-.81,.141-.71,.239-1.284,.808-1.535,1.522-3.006,8.617-4.546,18.533-5.317,27.288H6.196Zm162.024-17.428l-12.856-27.285h15.494l4.879,22.404-7.517,4.881Zm-11.797-59.597l.751,.085c13.585,1.543,23.835,12.951,23.844,26.536v.734h-26.871l2.276-27.355Zm-83.708-6.05c1.234-6.074,8.24-36.375,25.063-36.375s23.824,30.3,25.063,36.375l.18,.88h-50.484l.179-.879ZM27.334,108.243l-7.514-4.88,4.877-22.406h15.493l-12.856,27.285Zm-12.795-32.242v-.734c.009-13.585,10.26-24.993,23.845-26.536l.751-.085,2.273,27.355H14.539Z"/></svg>