<svg xmlns="http://www.w3.org/2000/svg" width="72" height="72" viewBox="0 0 72 72">
  <g id="Group_287" data-name="Group 287" transform="translate(-935.799 -1560.799)">
    <rect id="Rectangle_296" data-name="Rectangle 296" width="72" height="72" rx="6" transform="translate(935.799 1560.799)" fill="#482b7c"/>
    <path id="Path_69" data-name="Path 69" d="M21.171,21.171a6.712,6.712,0,0,1-9.493,0m18.171-4.746A13.424,13.424,0,1,1,16.424,3,13.424,13.424,0,0,1,29.849,16.424ZM13.068,13.068c0,.618-.251,1.119-.559,1.119s-.559-.5-.559-1.119.251-1.119.559-1.119S13.068,12.451,13.068,13.068Zm-.559,0h.012v.022h-.012Zm8.39,0c0,.618-.251,1.119-.559,1.119s-.559-.5-.559-1.119.251-1.119.559-1.119S20.9,12.451,20.9,13.068Zm-.559,0h.012v.022H20.34Z" transform="translate(955.374 1580.374)" fill="rgba(0,0,0,0)" stroke="#fff" stroke-linecap="round" stroke-linejoin="round" stroke-width="1.5"/>
  </g>
</svg>
