<svg xmlns="http://www.w3.org/2000/svg" xmlns:xlink="http://www.w3.org/1999/xlink" width="191.226" height="213.085" viewBox="0 0 191.226 213.085">
  <defs>
    <clipPath id="clip-path">
      <rect id="Rectangle_307" data-name="Rectangle 307" width="161.03" height="187.979" fill="none"/>
    </clipPath>
  </defs>
  <g id="Group_313" data-name="Group 313" transform="matrix(0.985, 0.174, -0.174, 0.985, 32.642, 0)">
    <g id="Group_312" data-name="Group 312" clip-path="url(#clip-path)">
      <path id="Path_73" data-name="Path 73" d="M89.418,187.979a2.034,2.034,0,0,1-.83-.184h0s-.008-.01-.021-.02a1.563,1.563,0,0,0-.168-.117,2.079,2.079,0,0,1-.482-.361.622.622,0,0,0-.059-.058,1.244,1.244,0,0,0-.1-.2,2.038,2.038,0,0,1-.25-.462,1.66,1.66,0,0,1-.055-.275l-.011-.074a1.994,1.994,0,0,0-.052-.224.6.6,0,0,1-.022-.086.756.756,0,0,1,.013-.1c.011-.072.02-.144.024-.217l.009-.058,0-.033.014-.08v-.041a18.3,18.3,0,0,1,.771-4.638l.01-.035,5.155-31.077-6.776-18.668-2.783.35a26.632,26.632,0,0,1-6.564,0l-2.786-.35-6.776,18.667,5.153,31.08.01.035a18.3,18.3,0,0,1,.77,4.636v.041l.015.094c0,.016,0,.033,0,.051a2.18,2.18,0,0,0,.025.242.729.729,0,0,1,.013.11c0,.023-.014.051-.022.08a1.987,1.987,0,0,0-.051.222l-.012.078a1.647,1.647,0,0,1-.055.275,2.044,2.044,0,0,1-.249.461,1.215,1.215,0,0,0-.1.2.721.721,0,0,0-.063.062,2.113,2.113,0,0,1-.484.361,1.578,1.578,0,0,0-.165.115l-.038.028a2.023,2.023,0,0,1-.808.173H34.524a2,2,0,0,1-.872-.216.531.531,0,0,1-.064-.046c-.045-.034-.091-.068-.14-.1a1.976,1.976,0,0,1-.481-.413.787.787,0,0,0-.1-.1.87.87,0,0,0-.071-.154,1.936,1.936,0,0,1-.214-.539l-.016-.061a1.714,1.714,0,0,1-.052-.256,1,1,0,0,0-.041-.211,18.435,18.435,0,0,1,3.611-10.87l.054-.074L45.1,148.915l5.066-26.507-.278-.229A35.844,35.844,0,0,1,36.869,97.966L34.686,71.693,25.243,91.729l7.6,29.775a1.24,1.24,0,0,0,0,.258,1.847,1.847,0,0,0,.052.229.678.678,0,0,1,.019.077v5.974a16.406,16.406,0,1,1-32.813,0v-5.909C.054,121.111-1.009,97.593,5,80.367a2.055,2.055,0,0,1,1.271-1.26,2,2,0,0,1,.67-.117,2.03,2.03,0,0,1,1.112.335L12.324,82.1l3.515-16.152H9.583A2.053,2.053,0,0,1,7.532,63.9V61.255A26.355,26.355,0,0,1,33.857,34.93h21.6l.1-.492C57.114,26.359,63.523,0,80.514,0s23.4,26.359,24.962,34.438l.095.492h21.6A26.355,26.355,0,0,1,153.5,61.255V63.9a2.053,2.053,0,0,1-2.051,2.05H145.19l3.517,16.15,4.266-2.77a2.037,2.037,0,0,1,1.115-.336,1.969,1.969,0,0,1,.659.114,2.06,2.06,0,0,1,1.281,1.264c6.009,17.216,4.95,40.742,4.9,41.735v5.938a16.408,16.408,0,0,1-32.816,0v-5.984c0-.016.012-.041.019-.066a1.908,1.908,0,0,0,.052-.225,1.2,1.2,0,0,0,.005-.257V121.5l7.6-29.775-9.443-20.036L124.161,97.93a35.906,35.906,0,0,1-13.018,24.246l-.278.229,5.066,26.509,8.961,26.022.053.074a18.429,18.429,0,0,1,3.612,10.872,1.081,1.081,0,0,0-.041.21,1.611,1.611,0,0,1-.052.259l-.015.06a1.949,1.949,0,0,1-.215.538.887.887,0,0,0-.072.155.746.746,0,0,0-.1.1,1.985,1.985,0,0,1-.483.416c-.048.03-.094.065-.14.1a.684.684,0,0,1-.066.047,2,2,0,0,1-.871.215Zm16.567-16.567a14.538,14.538,0,0,0-14.251,11.743l-.14.722h32.737l-.14-.722a14.537,14.537,0,0,0-14.251-11.743Zm-54.894,0a14.538,14.538,0,0,0-14.251,11.743l-.14.722H69.434l-.14-.722a14.537,14.537,0,0,0-14.251-11.743Zm3.953-4.1a18.42,18.42,0,0,1,10.95,3.639l1.2.881-3.371-20.339H48.546l-6.184,17.963,1.269-.558a18.43,18.43,0,0,1,7.459-1.585Zm38.792,4.518,1.2-.88a18.424,18.424,0,0,1,10.949-3.638h3.955a18.429,18.429,0,0,1,7.456,1.584l1.269.559-6.182-17.961H97.207Zm12.61-46.388a36.108,36.108,0,0,1-13.733,4.76l-1.955.246,6.151,16.943h14.556l-4.278-22.382Zm-56.881,21.95H64.122l6.15-16.944-1.957-.246a36.13,36.13,0,0,1-13.733-4.759l-.741-.433Zm82.65-19.349a12.307,12.307,0,0,0,24.613,0v-3.934H132.214Zm-128.01,0a12.305,12.305,0,1,0,24.611,0v-3.934H4.2ZM40.952,97.595a31.865,31.865,0,0,0,27.876,28.537l8.914,1.121a22.8,22.8,0,0,0,2.769.168,23.114,23.114,0,0,0,2.778-.168l8.912-1.122a31.886,31.886,0,0,0,27.878-28.573l4.867-58.528H36.086Zm98.79-4.79-6.939,27.2H156.89l.01-.6c.1-6.07-.06-21.573-3.708-34.4l-.225-.791ZM7.836,85.01c-3.647,12.825-3.808,28.33-3.708,34.4l.01.6H28.225L21.286,92.8,8.061,84.22ZM16,84.488l6.218,4.038L32.859,65.947H20.038Zm122.8,4.038,6.22-4.039-4.037-18.54H128.168ZM127.162,61.846H149.4v-.607A22.161,22.161,0,0,0,129.666,39.28l-.621-.071ZM31.364,39.28A22.161,22.161,0,0,0,11.633,61.239v.607H33.867L31.986,39.209ZM80.514,4.1c-13.922,0-19.72,25.075-20.74,30.1l-.148.728H101.4l-.148-.728c-1.025-5.026-6.841-30.1-20.74-30.1" transform="translate(0)" fill="#fff"/>
      <path id="Path_74" data-name="Path 74" d="M152.208,131.685a2.053,2.053,0,0,1-2.05-2.051V111.521a2.053,2.053,0,0,1,2.05-2.05h29.908a2.053,2.053,0,0,1,2.051,2.05v18.114a2.053,2.053,0,0,1-2.051,2.051Zm2.051-4.1h25.807V113.571H154.259Z" transform="translate(-86.648 -63.169)" fill="#fff"/>
      <path id="Path_75" data-name="Path 75" d="M164.191,48.191a2.05,2.05,0,1,1,0-4.1h19.772a2.05,2.05,0,1,1,0,4.1Z" transform="translate(-93.562 -25.442)" fill="#fff"/>
      <path id="Path_76" data-name="Path 76" d="M246.248,117.02a3.175,3.175,0,1,1,3.175-3.174,3.178,3.178,0,0,1-3.175,3.174" transform="translate(-140.263 -63.862)" fill="#fff"/>
      <path id="Path_77" data-name="Path 77" d="M246.248,143.521a3.175,3.175,0,1,1,3.175-3.175,3.179,3.179,0,0,1-3.175,3.175" transform="translate(-140.263 -79.154)" fill="#fff"/>
    </g>
  </g>
</svg>
